<svg width="22019" height="25768" viewBox="0 0 22019 15768" fill="none" xmlns="http://www.w3.org/2000/svg">
<path 
  id="theme-path" 
  d="M5937.71 2125.9C3531.33 1978.63 3648.58 3920.78 4008.01 4910.26C4082.52 5431.85 3938.97 6682.12 2768.65 7510.53C1305.76 8546.03 148.594 4341.55 3.94829 8891.2C-140.697 13440.8 4290.72 10640.1 8498.6 14640.7C11864.9 17841.2 17214.6 13469.3 19468.7 10883.3C21012.7 9995.74 23462.9 7741.3 20911.8 5824.13C17723.1 3427.68 17131.3 5357.33 15770.3 5824.13C14409.4 6290.93 13413.3 6392.84 14268 4055.56C15122.7 1718.28 12052.3 400.064 9918.76 35.1715C7785.23 -329.72 8945.69 2309.99 5937.71 2125.9Z" 
  fill="var(--onDrag)" 
/>
</svg>